<svg width="171" height="22" viewBox="0 0 171 22" fill="none" xmlns="http://www.w3.org/2000/svg">
<path d="M66.6738 2.04631V1.35218L66.3784 1.15399H54.5606L54.3636 1.35218V2.04631L54.5606 2.2445H59.583L59.78 2.44269V16.9182L59.9769 17.1164H60.8633L61.0602 16.9182V2.54178L61.2572 2.34359H66.3783L66.6738 2.04631ZM69.3343 5.51769C66.1829 5.51769 64.3082 7.7957 64.3082 11.0674V11.5664C64.3082 14.7393 65.8851 17.5125 69.529 17.5125C72.6804 17.5125 73.8624 15.4308 74.0595 14.0428L73.865 13.8469H72.9756L72.781 14.0428C72.2886 15.4308 71.399 16.3233 69.6263 16.3233C66.6718 16.3233 65.7862 13.5468 65.7862 12.1588L65.9854 11.9629H74.1568L74.356 11.7624V11.0675C74.356 7.7957 72.5842 5.51769 69.3343 5.51769ZM69.3343 6.70693C70.713 6.70693 71.6215 7.27697 72.1877 8.04541C72.754 8.81383 72.9752 9.78 72.9752 10.5731L72.7807 10.7737H65.8878L65.6887 10.5731C65.6887 9.78003 65.9099 8.81385 66.4762 8.04541C67.0424 7.277 67.9555 6.70693 69.3343 6.70693ZM76.6203 11.4653C76.6203 8.29267 78.1961 6.60712 80.4612 6.60712C82.7263 6.60712 83.6126 7.99515 83.9081 9.38318L84.105 9.58136H85.0898L85.2868 9.38318C85.0898 7.10283 83.2187 5.51662 80.4612 5.51662C77.5067 5.51662 75.2416 7.40035 75.2416 11.4653C75.2416 15.6297 77.5067 17.4143 80.4612 17.4143C83.2186 17.4143 84.9913 15.8278 85.2868 13.5475L85.0898 13.3493H84.2035L84.0066 13.5475C83.8096 14.9355 82.8248 16.3235 80.5597 16.3235C78.2946 16.3235 76.6203 14.7373 76.6203 11.4653ZM96.3167 17.0177V10.0773C96.3167 7.10283 94.741 5.51662 92.1806 5.51662C90.6049 5.51662 89.2261 6.21051 88.5368 7.40035H88.3399V1.45139L88.0444 1.15411H87.1581L86.9611 1.3523V17.0177L87.1581 17.2159H88.0444L88.2414 17.0177V10.7714C88.2414 8.19358 89.4232 6.60712 91.8851 6.60712C93.7563 6.60712 94.8397 7.79696 94.8397 10.0773V17.0177L95.0366 17.2159H95.9229L96.3167 17.0177ZM107.938 17.0177V10.0773C107.938 7.10283 106.362 5.51662 103.802 5.51662C102.226 5.51662 100.847 6.21051 100.158 7.40035H99.9609L99.7639 6.01232L99.567 5.81414H98.8776L98.6806 6.01232V17.0177L98.8776 17.2159H99.7639L99.9609 17.0177V10.7714C99.9609 8.19358 101.143 6.60712 103.605 6.60712C105.476 6.60712 106.559 7.79696 106.559 10.0773V17.0177L106.756 17.2159H107.741L107.938 17.0177ZM114.537 5.61571C111.582 5.61571 109.316 7.69999 109.316 11.5666C109.316 15.4334 111.582 17.5127 114.537 17.5127C117.491 17.5127 119.758 15.4333 119.758 11.5666C119.758 7.70002 117.491 5.61571 114.537 5.61571ZM114.537 6.70701C115.669 6.70701 116.63 7.17938 117.307 8.02216C117.984 8.86493 118.377 10.0794 118.377 11.5666C118.377 13.0538 117.984 14.2682 117.307 15.111C116.63 15.9538 115.67 16.4215 114.537 16.4215C113.404 16.4215 112.444 15.9538 111.767 15.111C111.09 14.2683 110.697 13.0539 110.697 11.5666C110.697 10.0298 111.09 8.81538 111.767 7.98491C112.444 7.15455 113.404 6.70701 114.537 6.70701ZM122.808 17.0178V1.35237L122.513 1.15418H121.627L121.43 1.35237V17.0178L121.627 17.2159H122.513L122.808 17.0178ZM129.606 5.61578C126.651 5.61578 124.385 7.70007 124.385 11.5666C124.385 15.4334 126.651 17.5127 129.606 17.5127C132.56 17.5127 134.822 15.4334 134.822 11.5666C134.822 7.70009 132.56 5.61578 129.606 5.61578ZM129.606 6.70708C130.739 6.70708 131.694 7.17945 132.371 8.02223C133.049 8.865 133.446 10.0795 133.446 11.5667C133.446 13.0539 133.048 14.2682 132.371 15.1111C131.694 15.9539 130.738 16.4216 129.606 16.4216C128.473 16.4216 127.513 15.9539 126.836 15.1111C126.155 14.2682 125.757 13.0538 125.757 11.5664C125.757 10.0296 126.154 8.81522 126.831 7.98474C127.508 7.15438 128.469 6.70689 129.601 6.70689L129.606 6.70708ZM140.83 5.51783C137.679 5.51783 136.003 8.09307 136.003 11.4639C136.003 14.9341 137.58 17.4148 140.83 17.4148C142.898 17.4148 143.983 16.5223 144.476 15.5307V15.6286C144.476 18.6029 143.787 20.8846 141.029 20.8846C138.961 20.8846 138.271 19.9945 138.074 18.8046L137.875 18.6041H136.99L136.791 18.8047C136.988 20.6884 138.369 21.9759 141.127 21.9759C144.081 21.9759 145.954 20.0916 145.954 15.5308V6.01228L145.754 5.81638H145.064L144.87 6.01228L144.67 7.40205H144.476C143.983 6.50973 142.898 5.51783 140.83 5.51783ZM140.83 6.60913C141.963 6.60913 142.875 7.00211 143.503 7.80768C144.131 8.61328 144.476 9.82812 144.476 11.4639C144.476 13.0999 144.131 14.3147 143.503 15.1201C142.875 15.9256 141.963 16.3233 140.83 16.3233C139.698 16.3233 138.785 15.9256 138.157 15.1201C137.529 14.3145 137.189 13.0998 137.189 11.4639C137.189 9.87755 137.529 8.66275 138.157 7.84493C138.785 7.02697 139.697 6.60913 140.83 6.60913ZM149.497 3.73207V2.34381L149.3 2.14562H148.414L148.118 2.34381V3.73207L148.315 3.93026H149.202L149.497 3.73207ZM149.497 17.0178V6.01242L149.3 5.81423H148.414L148.118 6.01242V17.0178L148.315 17.216H149.202L149.497 17.0178ZM156.094 5.51791C152.943 5.51791 151.072 7.79591 151.072 11.0676V11.5666C151.072 14.7395 152.649 17.5127 156.293 17.5127C159.445 17.5127 160.627 15.431 160.824 14.043L160.625 13.8471H159.74L159.541 14.043C159.048 15.431 158.163 16.3235 156.391 16.3235C153.436 16.3235 152.55 13.547 152.55 12.159L152.75 11.9631H160.921L161.12 11.7626V11.0677C161.12 7.89501 159.245 5.51791 156.094 5.51791ZM156.094 6.70715C157.473 6.70715 158.386 7.27719 158.952 8.04563C159.518 8.81404 159.74 9.78022 159.74 10.5733L159.54 10.7739H152.648L152.453 10.5733C152.453 9.78024 152.674 8.81407 153.241 8.04563C153.807 7.27721 154.715 6.70715 156.094 6.70715ZM170.769 14.2416C170.769 12.1597 169.587 11.2674 167.322 10.7717C165.057 10.2757 163.679 10.0775 163.679 8.49107C163.679 7.30147 164.565 6.60734 166.239 6.60734C168.307 6.60734 168.997 7.49966 168.997 8.6895L169.193 8.88768H170.08L170.277 8.6895C170.277 6.40915 168.406 5.51683 166.14 5.51683C163.58 5.51683 162.3 6.90486 162.3 8.49107C162.3 10.375 163.678 11.2674 165.943 11.664C168.208 12.1597 169.39 12.3579 169.39 14.2416C169.39 15.4314 168.701 16.3238 166.436 16.3238C164.368 16.3238 163.481 15.1339 163.481 13.7459L163.284 13.5477H162.398L162.201 13.7459C162.201 15.8281 163.776 17.4145 166.534 17.4145C169.39 17.5148 170.769 16.1256 170.769 14.2416Z" fill="#808080"/>
<path d="M54.2647 13.8339V17.1164H44.0175V0.937927H47.7438V13.8332L54.2647 13.8339ZM23.287 0L14.2074 7.03756C13.2758 3.52033 10.2487 0.937449 6.52237 0.937449H0V17.1157H6.52237C10.2487 17.1157 13.5087 14.5374 14.2074 11.0204L23.2868 18.0532L32.3709 11.0204V17.1157H42.6177V13.8325H35.8683V0.937449H32.1392V7.03278L23.523 14.0703L21.6608 12.4287L25.8531 9.1455L30.2788 5.62899L27.7173 3.52105L19.1 10.316L17.2379 8.67439L25.8531 2.10795L23.2923 0H23.287ZM3.49291 4.22067H6.28614C6.86839 4.22067 7.43906 4.35195 7.96306 4.59376C8.48708 4.83555 8.96836 5.18945 9.37592 5.62909C9.78349 6.06871 10.1158 6.59326 10.3487 7.18674C10.5816 7.78023 10.71 8.44206 10.71 9.14548C10.71 9.79026 10.5959 10.4191 10.3811 11.0016C10.1663 11.5842 9.85232 12.1189 9.45931 12.5733C9.06631 13.0274 8.59518 13.3996 8.06035 13.6599C7.52551 13.9199 6.92652 14.0656 6.28614 14.0656H3.49291V4.22067Z" fill="#007DB8"/>
</svg>
