<svg width="64" height="64" viewBox="0 0 64 64" fill="none" xmlns="http://www.w3.org/2000/svg">
<path d="M57.12 29.1252C57.5974 28.9146 58.0025 28.5686 58.2852 28.13C58.5678 27.6915 58.7156 27.1796 58.7102 26.6579C58.7048 26.1361 58.5465 25.6274 58.2548 25.1948C57.9632 24.7621 57.551 24.4246 57.0693 24.2239L34.2133 13.8132C33.5185 13.4963 32.7637 13.3323 32 13.3323C31.2363 13.3323 30.4815 13.4963 29.7867 13.8132L6.93334 24.2132C6.45859 24.4212 6.05472 24.7629 5.77112 25.1967C5.48752 25.6305 5.33649 26.1376 5.33649 26.6559C5.33649 27.1742 5.48752 27.6812 5.77112 28.1151C6.05472 28.5489 6.45859 28.8906 6.93334 29.0986L29.7867 39.5199C30.4815 39.8368 31.2363 40.0008 32 40.0008C32.7637 40.0008 33.5185 39.8368 34.2133 39.5199L57.12 29.1252Z" stroke="#0693E3" stroke-width="6" stroke-linecap="round" stroke-linejoin="round"/>
<path d="M58.6667 26.6667V42.6667" stroke="#0693E3" stroke-width="6" stroke-linecap="round" stroke-linejoin="round"/>
<path d="M16 33.3333V42.6666C16 44.7883 17.6857 46.8231 20.6863 48.3234C23.6869 49.8237 27.7565 50.6666 32 50.6666C36.2435 50.6666 40.3131 49.8237 43.3137 48.3234C46.3143 46.8231 48 44.7883 48 42.6666V33.3333" stroke="#0693E3" stroke-width="6" stroke-linecap="round" stroke-linejoin="round"/>
</svg>
