<svg width="64" height="64" viewBox="0 0 64 64" fill="none" xmlns="http://www.w3.org/2000/svg">
<path d="M29.3334 45.3334L34.6667 50.6667C35.192 51.192 35.8156 51.6087 36.5019 51.893C37.1882 52.1773 37.9238 52.3236 38.6667 52.3236C39.4096 52.3236 40.1452 52.1773 40.8315 51.893C41.5178 51.6087 42.1414 51.192 42.6667 50.6667C43.192 50.1415 43.6087 49.5179 43.893 48.8315C44.1772 48.1452 44.3236 47.4096 44.3236 46.6667C44.3236 45.9239 44.1772 45.1883 43.893 44.502C43.6087 43.8156 43.192 43.192 42.6667 42.6667" stroke="#0693E3" stroke-width="6" stroke-linecap="round" stroke-linejoin="round"/>
<path d="M37.3333 37.3332L44 43.9999C45.0609 45.0607 46.4997 45.6567 48 45.6567C49.5003 45.6567 50.9391 45.0607 52 43.9999C53.0609 42.939 53.6569 41.5002 53.6569 39.9999C53.6569 38.4996 53.0609 37.0607 52 35.9999L41.6533 25.6532C40.1533 24.1551 38.12 23.3136 36 23.3136C33.88 23.3136 31.8467 24.1551 30.3467 25.6532L28 27.9999C26.9391 29.0607 25.5003 29.6567 24 29.6567C22.4997 29.6567 21.0609 29.0607 20 27.9999C18.9391 26.939 18.3431 25.5002 18.3431 23.9999C18.3431 22.4996 18.9391 21.0607 20 19.9999L27.4933 12.5065C29.926 10.0803 33.0984 8.53468 36.5084 8.11447C39.9184 7.69426 43.3711 8.42343 46.32 10.1865L47.5733 10.9332C48.7088 11.6185 50.0588 11.8562 51.36 11.5999L56 10.6665" stroke="#0693E3" stroke-width="6" stroke-linecap="round" stroke-linejoin="round"/>
<path d="M56 8L58.6667 37.3333H53.3334" stroke="#0693E3" stroke-width="6" stroke-linecap="round" stroke-linejoin="round"/>
<path d="M7.99998 8L5.33331 37.3333L22.6666 54.6667C23.7275 55.7275 25.1664 56.3235 26.6666 56.3235C28.1669 56.3235 29.6058 55.7275 30.6666 54.6667C31.7275 53.6058 32.3235 52.167 32.3235 50.6667C32.3235 49.1664 31.7275 47.7275 30.6666 46.6667" stroke="#0693E3" stroke-width="6" stroke-linecap="round" stroke-linejoin="round"/>
<path d="M8 10.6667H29.3333" stroke="#0693E3" stroke-width="6" stroke-linecap="round" stroke-linejoin="round"/>
</svg>
