<svg width="511" height="473" viewBox="0 0 511 473" fill="none" xmlns="http://www.w3.org/2000/svg">
<g clip-path="url(#clip0_59_364)">
<path d="M220.236 472.047C341.343 472.047 439.52 373.78 439.52 252.562C439.52 131.344 341.343 33.0771 220.236 33.0771C99.1289 33.0771 0.952026 131.344 0.952026 252.562C0.952026 373.78 99.1289 472.047 220.236 472.047Z" stroke="#E6E6E6" stroke-width="3"/>
<path d="M248.556 0H261.665C262.149 0.00233686 262.611 0.195488 262.953 0.537481C263.295 0.879473 263.488 1.34267 263.491 1.82639V14.9529C263.488 15.4361 263.295 15.8987 262.953 16.2398C262.611 16.5809 262.148 16.7728 261.665 16.7736H248.553C248.07 16.7736 247.607 16.5818 247.266 16.2404C246.924 15.8991 246.732 15.436 246.732 14.9529V1.82702C246.733 1.34293 246.925 0.878908 247.267 0.536492C247.609 0.194075 248.072 0.00117545 248.556 0ZM261.665 16.1841C261.992 16.1836 262.306 16.0536 262.537 15.8226C262.769 15.5916 262.9 15.2783 262.902 14.951V1.82639C262.9 1.49859 262.769 1.1848 262.537 0.953115C262.305 0.721435 261.992 0.590561 261.664 0.588894H248.558C248.23 0.589566 247.916 0.720156 247.684 0.952087C247.453 1.18402 247.322 1.4984 247.321 1.82639V14.9516C247.322 15.2785 247.452 15.5918 247.683 15.8227C247.914 16.0537 248.227 16.1834 248.553 16.1834L261.665 16.1841Z" fill="#D6D6E3"/>
<path d="M261.663 22.6613H248.556C248.355 22.6613 248.156 22.7011 247.97 22.7783C247.784 22.8554 247.615 22.9684 247.473 23.1109C247.331 23.2534 247.218 23.4225 247.141 23.6086C247.064 23.7947 247.025 23.9941 247.025 24.1954V37.3207C247.025 37.5214 247.065 37.7201 247.143 37.9054C247.22 38.0907 247.333 38.259 247.475 38.4006C247.617 38.5421 247.786 38.6543 247.971 38.7306C248.157 38.807 248.355 38.8459 248.556 38.8453H261.663C262.068 38.8455 262.457 38.6852 262.743 38.3994C263.03 38.1137 263.192 37.7258 263.194 37.3207V24.1954C263.193 23.7894 263.031 23.4004 262.745 23.1133C262.458 22.8262 262.069 22.6643 261.663 22.6632V22.6613Z" fill="#D6D6E3"/>
<path d="M261.663 45.0284H248.556C248.15 45.0286 247.761 45.1901 247.474 45.4774C247.187 45.7647 247.025 46.1543 247.025 46.5607V59.6809C247.025 59.8822 247.064 60.0816 247.141 60.2677C247.217 60.4538 247.33 60.6229 247.472 60.7653C247.615 60.9076 247.784 61.0205 247.97 61.0973C248.156 61.1742 248.355 61.2135 248.556 61.2131H261.663C262.069 61.213 262.459 61.0515 262.746 60.7641C263.033 60.4768 263.194 60.0872 263.194 59.6809V46.5607C263.193 46.1546 263.031 45.7656 262.745 45.4785C262.458 45.1914 262.069 45.0296 261.663 45.0284Z" fill="#D6D6E3"/>
<path d="M263.171 68.6559C263.106 68.3029 262.919 67.9838 262.644 67.7534C262.369 67.5231 262.022 67.3961 261.663 67.3943H248.556C248.15 67.3945 247.761 67.5559 247.474 67.8433C247.187 68.1306 247.025 68.5202 247.025 68.9265V82.0461C247.025 82.2474 247.064 82.4469 247.141 82.633C247.217 82.819 247.33 82.9881 247.472 83.1305C247.615 83.2729 247.784 83.3857 247.97 83.4626C248.156 83.5394 248.355 83.5788 248.556 83.5784H261.663C262.069 83.5782 262.459 83.4167 262.746 83.1294C263.033 82.8421 263.194 82.4524 263.194 82.0461V68.9291C263.196 68.8381 263.188 68.7472 263.171 68.6578V68.6559Z" fill="#D6D6E3"/>
<path d="M262.258 89.8796C262.07 89.8014 261.868 89.7613 261.663 89.7614H248.556C248.355 89.761 248.156 89.8004 247.97 89.8772C247.784 89.9541 247.615 90.0669 247.473 90.2093C247.33 90.3516 247.218 90.5207 247.141 90.7068C247.064 90.8929 247.025 91.0924 247.025 91.2937V104.415C247.024 104.616 247.063 104.816 247.14 105.002C247.216 105.188 247.329 105.358 247.471 105.5C247.614 105.643 247.783 105.756 247.969 105.832C248.155 105.909 248.355 105.948 248.556 105.947H261.663C262.069 105.946 262.459 105.785 262.746 105.498C263.033 105.21 263.194 104.821 263.194 104.415V91.2943C263.194 90.9927 263.105 90.6979 262.938 90.4465C262.772 90.195 262.535 89.9979 262.258 89.8796Z" fill="#D6D6E3"/>
<path d="M289.197 0.294769H276.09C275.684 0.294938 275.295 0.45643 275.008 0.743749C274.72 1.03107 274.559 1.4207 274.559 1.82703V14.9523C274.559 15.153 274.599 15.3517 274.676 15.537C274.754 15.7223 274.867 15.8906 275.009 16.0321C275.151 16.1737 275.32 16.2859 275.505 16.3622C275.691 16.4385 275.889 16.4775 276.09 16.4769H289.197C289.602 16.4771 289.99 16.3168 290.277 16.031C290.564 15.7453 290.726 15.3574 290.728 14.9523V1.82703C290.727 1.42101 290.565 1.03196 290.279 0.744854C289.992 0.457752 289.603 0.295943 289.197 0.294769Z" fill="#D6D6E3"/>
<path d="M289.197 22.6613H276.09C275.889 22.6613 275.689 22.7011 275.504 22.7783C275.318 22.8554 275.149 22.9684 275.007 23.1109C274.865 23.2534 274.752 23.4225 274.675 23.6086C274.598 23.7947 274.559 23.9941 274.559 24.1954V37.3207C274.559 37.5214 274.599 37.7201 274.676 37.9054C274.754 38.0907 274.867 38.259 275.009 38.4006C275.151 38.5421 275.32 38.6543 275.505 38.7306C275.691 38.807 275.889 38.8459 276.09 38.8453H289.197C289.602 38.8455 289.99 38.6852 290.277 38.3994C290.564 38.1137 290.726 37.7258 290.728 37.3207V24.1954C290.727 23.7894 290.565 23.4004 290.279 23.1133C289.992 22.8262 289.603 22.6643 289.197 22.6632V22.6613Z" fill="#0693E3"/>
<path d="M289.197 45.0284H276.09C275.684 45.0286 275.295 45.1901 275.008 45.4774C274.72 45.7647 274.559 46.1543 274.559 46.5607V59.6809C274.559 59.8822 274.598 60.0816 274.675 60.2677C274.751 60.4538 274.864 60.6229 275.006 60.7653C275.149 60.9076 275.318 61.0205 275.503 61.0973C275.689 61.1742 275.889 61.2135 276.09 61.2131H289.197C289.603 61.213 289.993 61.0515 290.28 60.7641C290.567 60.4768 290.728 60.0872 290.728 59.6809V46.5607C290.727 46.1546 290.565 45.7656 290.279 45.4785C289.992 45.1914 289.603 45.0296 289.197 45.0284Z" fill="#0693E3"/>
<path d="M289.197 67.3949H276.09C275.769 67.3946 275.456 67.4959 275.196 67.6843C274.936 67.8727 274.742 68.1384 274.641 68.4437C274.587 68.5991 274.559 68.7625 274.559 68.9272V82.0467C274.559 82.2481 274.598 82.4475 274.675 82.6336C274.751 82.8197 274.864 82.9888 275.006 83.1311C275.149 83.2735 275.318 83.3864 275.503 83.4632C275.689 83.5401 275.889 83.5794 276.09 83.579H289.197C289.603 83.5788 289.993 83.4173 290.28 83.13C290.567 82.8427 290.728 82.4531 290.728 82.0467V68.9291C290.727 68.5228 290.566 68.1333 290.279 67.8459C289.992 67.5584 289.603 67.3962 289.197 67.3949Z" fill="#0693E3"/>
<path d="M289.197 89.7621H276.09C275.889 89.7616 275.689 89.801 275.503 89.8778C275.318 89.9547 275.149 90.0675 275.006 90.2099C274.864 90.3523 274.751 90.5214 274.675 90.7075C274.598 90.8935 274.559 91.093 274.559 91.2943V104.415C274.559 104.616 274.598 104.815 274.675 105.001C274.751 105.187 274.864 105.357 275.006 105.499C275.149 105.641 275.318 105.754 275.503 105.831C275.689 105.908 275.889 105.947 276.09 105.947H289.197C289.603 105.947 289.993 105.785 290.28 105.498C290.567 105.21 290.728 104.821 290.728 104.415V91.2943C290.728 90.888 290.567 90.4984 290.28 90.211C289.993 89.9237 289.603 89.7622 289.197 89.7621Z" fill="#D6D6E3"/>
<path d="M316.731 0.294769H303.623C303.217 0.294938 302.828 0.45643 302.541 0.743749C302.254 1.03107 302.092 1.4207 302.092 1.82703V14.9523C302.093 15.153 302.133 15.3517 302.21 15.537C302.287 15.7223 302.4 15.8906 302.542 16.0321C302.684 16.1737 302.853 16.2859 303.038 16.3622C303.224 16.4385 303.423 16.4775 303.623 16.4769H316.731C317.135 16.4771 317.524 16.3168 317.811 16.031C318.098 15.7453 318.26 15.3574 318.262 14.9523V1.82703C318.26 1.42101 318.099 1.03196 317.812 0.744854C317.525 0.457752 317.137 0.295943 316.731 0.294769Z" fill="#0693E3"/>
<path d="M316.731 22.6613H303.623C303.422 22.6614 303.223 22.7012 303.037 22.7784C302.852 22.8556 302.683 22.9687 302.541 23.1111C302.399 23.2536 302.286 23.4227 302.209 23.6087C302.132 23.7948 302.093 23.9941 302.093 24.1954V37.3207C302.093 37.5214 302.133 37.7201 302.211 37.9054C302.288 38.0907 302.401 38.259 302.543 38.4006C302.685 38.5421 302.854 38.6543 303.039 38.7306C303.225 38.807 303.423 38.8459 303.624 38.8453H316.731C317.136 38.8455 317.524 38.6852 317.811 38.3994C318.098 38.1137 318.26 37.7258 318.262 37.3207V24.1954C318.261 23.7894 318.099 23.4004 317.813 23.1133C317.526 22.8262 317.137 22.6643 316.731 22.6632V22.6613Z" fill="#0693E3"/>
<path d="M316.731 45.0284H303.623C303.217 45.0286 302.828 45.1901 302.541 45.4774C302.254 45.7647 302.092 46.1543 302.092 46.5607V59.6809C302.092 59.8822 302.131 60.0816 302.208 60.2677C302.285 60.4538 302.398 60.6229 302.54 60.7653C302.682 60.9076 302.851 61.0205 303.037 61.0973C303.223 61.1742 303.422 61.2135 303.623 61.2131H316.731C317.137 61.213 317.526 61.0515 317.813 60.7641C318.1 60.4768 318.261 60.0872 318.262 59.6809V46.5607C318.26 46.1548 318.099 45.7658 317.812 45.4787C317.525 45.1916 317.137 45.0298 316.731 45.0284Z" fill="#D6D6E3"/>
<path d="M316.731 67.3949H303.623C303.217 67.3951 302.828 67.5566 302.541 67.8439C302.254 68.1312 302.092 68.5208 302.092 68.9272V82.0467C302.092 82.2481 302.131 82.4475 302.208 82.6336C302.285 82.8197 302.398 82.9888 302.54 83.1311C302.682 83.2735 302.851 83.3864 303.037 83.4632C303.223 83.5401 303.422 83.5794 303.623 83.579H316.731C317.137 83.5788 317.526 83.4173 317.813 83.13C318.1 82.8427 318.261 82.4531 318.262 82.0467V68.9291C318.261 68.5228 318.1 68.1334 317.813 67.8459C317.526 67.5584 317.137 67.3962 316.731 67.3949Z" fill="#0693E3"/>
<path d="M316.731 89.7621H303.623C303.422 89.7616 303.223 89.801 303.037 89.8778C302.851 89.9547 302.682 90.0675 302.54 90.2099C302.398 90.3523 302.285 90.5214 302.208 90.7075C302.131 90.8935 302.092 91.093 302.092 91.2943V104.415C302.092 104.616 302.131 104.815 302.208 105.001C302.285 105.187 302.398 105.357 302.54 105.499C302.682 105.641 302.851 105.754 303.037 105.831C303.223 105.908 303.422 105.947 303.623 105.947H316.731C317.137 105.946 317.526 105.785 317.813 105.498C318.1 105.21 318.261 104.821 318.262 104.415V91.2943C318.261 90.888 318.1 90.4984 317.813 90.211C317.526 89.9237 317.137 89.7622 316.731 89.7621Z" fill="#0693E3"/>
<path d="M344.265 0.294769H331.158C330.752 0.294938 330.363 0.45643 330.076 0.743749C329.788 1.03107 329.627 1.4207 329.627 1.82703V14.9523C329.627 15.153 329.667 15.3517 329.745 15.5369C329.822 15.7222 329.935 15.8904 330.077 16.032C330.219 16.1735 330.388 16.2857 330.573 16.3621C330.759 16.4384 330.957 16.4774 331.158 16.4769H344.265C344.67 16.4771 345.058 16.3168 345.345 16.031C345.632 15.7453 345.794 15.3574 345.796 14.9523V1.82703C345.795 1.42101 345.633 1.03196 345.347 0.744854C345.06 0.457752 344.671 0.295943 344.265 0.294769Z" fill="#0693E3"/>
<path d="M331.158 22.3671H344.265C344.749 22.3695 345.212 22.5626 345.553 22.9046C345.895 23.2466 346.088 23.7098 346.091 24.1935V37.3201C346.088 37.8033 345.895 38.2659 345.553 38.6071C345.212 38.9483 344.749 39.1404 344.266 39.1414H331.153C330.671 39.1414 330.208 38.9496 329.867 38.6082C329.525 38.2668 329.333 37.8037 329.333 37.3207V24.1942C329.333 23.7099 329.526 23.2456 329.868 22.9032C330.21 22.5607 330.674 22.368 331.158 22.3671ZM344.265 38.5512C344.592 38.5507 344.906 38.4208 345.138 38.1898C345.369 37.9588 345.5 37.6454 345.502 37.3182V24.1935C345.5 23.8657 345.369 23.5519 345.137 23.3202C344.905 23.0886 344.592 22.9577 344.264 22.956H331.158C330.83 22.9567 330.516 23.0873 330.284 23.3192C330.053 23.5511 329.922 23.8655 329.921 24.1935V37.3188C329.922 37.6456 330.052 37.9589 330.283 38.1899C330.514 38.4208 330.827 38.5506 331.153 38.5506L344.265 38.5512Z" fill="#D6D6E3"/>
<path d="M331.158 44.7336H344.265C344.749 44.736 345.212 44.9291 345.553 45.2711C345.895 45.6131 346.088 46.0763 346.091 46.56V59.6802C346.09 60.1645 345.897 60.6287 345.555 60.9712C345.213 61.3137 344.749 61.5064 344.265 61.5072H331.155C330.915 61.5079 330.678 61.461 330.457 61.3693C330.236 61.2776 330.035 61.1429 329.866 60.973C329.525 60.6292 329.333 60.1643 329.333 59.6796V46.5607C329.333 46.0764 329.526 45.6121 329.868 45.2697C330.21 44.9272 330.674 44.7345 331.158 44.7336ZM344.265 60.9177C344.593 60.917 344.907 60.7864 345.139 60.5545C345.371 60.3226 345.501 60.0082 345.502 59.6802V46.5607C345.5 46.2329 345.369 45.9191 345.137 45.6874C344.905 45.4557 344.592 45.3248 344.264 45.3232H331.158C330.83 45.3238 330.516 45.4545 330.284 45.6866C330.052 45.9187 329.922 46.2332 329.921 46.5613V59.6809C329.922 60.0091 330.051 60.324 330.283 60.5569C330.397 60.6718 330.533 60.763 330.683 60.825C330.832 60.8871 330.993 60.9188 331.155 60.9184L344.265 60.9177Z" fill="#D6D6E3"/>
<path d="M344.265 67.3949H331.158C330.752 67.3951 330.363 67.5566 330.076 67.8439C329.788 68.1312 329.627 68.5208 329.627 68.9272V82.0467C329.627 82.2481 329.666 82.4475 329.743 82.6336C329.819 82.8197 329.932 82.9888 330.074 83.1311C330.217 83.2735 330.386 83.3864 330.571 83.4632C330.757 83.5401 330.957 83.5794 331.158 83.579H344.265C344.671 83.5788 345.061 83.4173 345.348 83.13C345.635 82.8427 345.796 82.4531 345.796 82.0467V68.9291C345.796 68.5227 345.634 68.1332 345.347 67.8457C345.06 67.5581 344.671 67.3961 344.265 67.3949Z" fill="#D6D6E3"/>
<path d="M344.265 89.7621H331.158C330.957 89.7616 330.757 89.801 330.571 89.8778C330.386 89.9547 330.217 90.0675 330.074 90.2099C329.932 90.3523 329.819 90.5214 329.743 90.7075C329.666 90.8935 329.627 91.093 329.627 91.2943V104.415C329.627 104.616 329.666 104.815 329.743 105.001C329.82 105.187 329.932 105.356 330.075 105.499C330.217 105.641 330.386 105.754 330.572 105.831C330.757 105.908 330.957 105.947 331.158 105.947H344.265C344.671 105.947 345.061 105.785 345.348 105.498C345.635 105.21 345.796 104.821 345.796 104.415V91.2943C345.796 90.888 345.635 90.4984 345.348 90.211C345.061 89.9237 344.671 89.7622 344.265 89.7621Z" fill="#0693E3"/>
<path d="M358.685 0H371.799C372.283 0.00233686 372.745 0.195488 373.087 0.537481C373.429 0.879473 373.622 1.34267 373.625 1.82639V14.9529C373.622 15.4361 373.429 15.8988 373.087 16.24C372.746 16.5812 372.283 16.7732 371.8 16.7742H358.685C358.203 16.7734 357.741 16.5812 357.4 16.2398C357.059 15.8984 356.867 15.4357 356.866 14.9529V1.82702C356.867 1.34387 357.059 0.880604 357.399 0.538314C357.74 0.196024 358.202 0.00251593 358.685 0ZM371.799 16.1841C372.126 16.1836 372.44 16.0536 372.672 15.8226C372.903 15.5916 373.034 15.2783 373.036 14.951V1.82639C373.034 1.49859 372.903 1.1848 372.671 0.953115C372.439 0.721435 372.126 0.590561 371.798 0.588894H358.687C358.36 0.590572 358.047 0.721623 357.816 0.953464C357.585 1.1853 357.455 1.49911 357.455 1.82639V14.9516C357.455 15.2782 357.585 15.5912 357.816 15.8221C358.047 16.053 358.359 16.1829 358.685 16.1834L371.799 16.1841Z" fill="#D6D6E3"/>
<path d="M358.685 22.3671H371.799C372.283 22.3695 372.745 22.5626 373.087 22.9046C373.429 23.2466 373.622 23.7098 373.625 24.1935V37.3201C373.622 37.8033 373.429 38.2659 373.087 38.6071C372.746 38.9483 372.283 39.1404 371.8 39.1414H358.685C358.203 39.1407 357.741 38.9486 357.4 38.6071C357.059 38.2657 356.867 37.8028 356.866 37.3201V24.1942C356.867 23.711 357.059 23.2477 357.399 22.9055C357.74 22.5632 358.202 22.3696 358.685 22.3671ZM358.685 38.5512H371.799C372.126 38.5507 372.439 38.4208 372.671 38.1898C372.902 37.9588 373.033 37.6454 373.035 37.3182V24.1935C373.033 23.8657 372.902 23.5519 372.67 23.3202C372.439 23.0886 372.125 22.9577 371.797 22.956H358.687C358.36 22.9577 358.047 23.0888 357.816 23.3206C357.585 23.5525 357.455 23.8662 357.455 24.1935V37.3188C357.455 37.6455 357.585 37.9588 357.815 38.1898C358.046 38.4209 358.358 38.5509 358.685 38.5512Z" fill="#D6D6E3"/>
<path d="M358.685 44.7336H371.799C372.283 44.736 372.746 44.9291 373.087 45.2711C373.429 45.6131 373.622 46.0763 373.625 46.56V59.6802C373.624 60.1645 373.431 60.6287 373.089 60.9712C372.747 61.3137 372.283 61.5064 371.799 61.5072H358.686C358.447 61.5071 358.21 61.4596 357.989 61.3677C357.767 61.2757 357.567 61.1409 357.398 60.9712C357.229 60.8014 357.095 60.6 357.004 60.3783C356.912 60.1567 356.866 59.9193 356.866 59.6796V46.5607C356.867 46.0775 357.059 45.6142 357.399 45.272C357.74 44.9297 358.202 44.7362 358.685 44.7336ZM358.685 60.9177H371.798C372.126 60.917 372.44 60.7865 372.672 60.5545C372.903 60.3226 373.034 60.0082 373.034 59.6802V46.5607C373.032 46.2329 372.901 45.9191 372.67 45.6874C372.438 45.4557 372.124 45.3248 371.797 45.3232H358.687C358.36 45.3249 358.047 45.4559 357.816 45.6877C357.585 45.9196 357.455 46.2334 357.455 46.5607V59.6802C357.454 59.8424 357.486 60.0031 357.547 60.1531C357.609 60.3031 357.7 60.4394 357.814 60.5544C357.928 60.6693 358.064 60.7606 358.214 60.8229C358.363 60.8853 358.523 60.9175 358.685 60.9177Z" fill="#D6D6E3"/>
<path d="M371.799 67.3949H358.686C358.281 67.3967 357.894 67.559 357.608 67.8462C357.323 68.1334 357.163 68.5221 357.163 68.9272V82.0467C357.162 82.2475 357.201 82.4463 357.277 82.632C357.354 82.8177 357.466 82.9865 357.607 83.1288C357.749 83.2711 357.917 83.3841 358.102 83.4613C358.287 83.5386 358.486 83.5786 358.686 83.579H371.799C372.205 83.5788 372.595 83.4173 372.882 83.13C373.169 82.8427 373.33 82.4531 373.33 82.0467V68.9291C373.329 68.5231 373.167 68.1341 372.88 67.8471C372.594 67.56 372.205 67.3982 371.799 67.3968V67.3949Z" fill="#0693E3"/>
<path d="M371.799 89.7621H358.686C358.486 89.7626 358.287 89.8026 358.102 89.8799C357.917 89.9571 357.749 90.0701 357.607 90.2124C357.466 90.3547 357.354 90.5235 357.278 90.7091C357.201 90.8948 357.162 91.0936 357.163 91.2943V104.415C357.162 104.615 357.201 104.814 357.277 105C357.354 105.185 357.466 105.354 357.607 105.497C357.749 105.639 357.917 105.752 358.102 105.829C358.287 105.906 358.486 105.946 358.686 105.947H371.799C372.205 105.947 372.595 105.785 372.882 105.498C373.169 105.21 373.33 104.821 373.33 104.415V91.2943C373.33 90.888 373.169 90.4984 372.882 90.211C372.595 89.9237 372.205 89.7622 371.799 89.7621Z" fill="#D6D6E3"/>
<path d="M386.219 0H399.335C399.818 0.00233686 400.281 0.195488 400.623 0.537481C400.965 0.879473 401.158 1.34267 401.161 1.82639V14.9529C401.158 15.4361 400.965 15.8988 400.623 16.24C400.281 16.5812 399.819 16.7732 399.336 16.7742H386.219C385.737 16.7736 385.275 16.5814 384.934 16.24C384.593 15.8986 384.401 15.4357 384.4 14.9529V1.82702C384.401 1.34387 384.593 0.880604 384.933 0.538314C385.274 0.196024 385.736 0.00251593 386.219 0ZM399.335 16.1841C399.662 16.1836 399.976 16.0536 400.207 15.8226C400.439 15.5916 400.57 15.2783 400.572 14.951V1.82639C400.57 1.49859 400.439 1.1848 400.207 0.953115C399.975 0.721435 399.661 0.590561 399.334 0.588894H386.221C385.894 0.590572 385.581 0.721623 385.35 0.953464C385.119 1.1853 384.989 1.49911 384.989 1.82639V14.9516C384.989 15.2782 385.119 15.5912 385.35 15.8221C385.58 16.053 385.893 16.1829 386.219 16.1834L399.335 16.1841Z" fill="#D6D6E3"/>
<path d="M386.219 22.3671H399.335C399.818 22.3695 400.281 22.5626 400.623 22.9046C400.965 23.2466 401.158 23.7098 401.161 24.1935V37.3201C401.158 37.8033 400.965 38.2659 400.623 38.6071C400.281 38.9483 399.819 39.1404 399.336 39.1414H386.219C385.737 39.1405 385.275 38.9484 384.934 38.607C384.593 38.2656 384.401 37.8028 384.4 37.3201V24.1942C384.401 23.711 384.593 23.2477 384.933 22.9055C385.274 22.5632 385.736 22.3696 386.219 22.3671ZM386.219 38.5512H399.335C399.662 38.5507 399.976 38.4208 400.207 38.1898C400.439 37.9588 400.57 37.6454 400.572 37.3182V24.1935C400.57 23.8657 400.439 23.5519 400.207 23.3202C399.975 23.0886 399.661 22.9577 399.334 22.956H386.221C385.894 22.9577 385.581 23.0888 385.35 23.3206C385.119 23.5525 384.989 23.8662 384.989 24.1935V37.3188C384.989 37.6454 385.119 37.9586 385.35 38.1897C385.58 38.4207 385.893 38.5507 386.219 38.5512H386.219Z" fill="#D6D6E3"/>
<path d="M399.333 45.0284H386.22C385.815 45.0303 385.428 45.1925 385.142 45.4797C384.857 45.7669 384.697 46.1556 384.697 46.5607V59.6809C384.696 59.8816 384.735 60.0805 384.811 60.2662C384.888 60.4518 385 60.6206 385.141 60.7629C385.283 60.9052 385.451 61.0182 385.636 61.0955C385.821 61.1727 386.019 61.2127 386.22 61.2131H399.333C399.739 61.213 400.129 61.0515 400.416 60.7641C400.703 60.4768 400.864 60.0872 400.864 59.6809V46.5607C400.863 46.1546 400.701 45.7656 400.414 45.4785C400.128 45.1914 399.739 45.0296 399.333 45.0284Z" fill="#0693E3"/>
<path d="M399.333 67.3949H386.22C385.815 67.3969 385.428 67.5592 385.142 67.8464C384.857 68.1335 384.697 68.5221 384.697 68.9272V82.0467C384.696 82.2475 384.735 82.4463 384.811 82.632C384.888 82.8177 385 82.9865 385.141 83.1288C385.283 83.2711 385.451 83.3841 385.636 83.4613C385.821 83.5386 386.019 83.5786 386.22 83.579H399.333C399.739 83.5788 400.129 83.4173 400.416 83.13C400.703 82.8427 400.864 82.4531 400.864 82.0467V68.9291C400.863 68.5231 400.701 68.134 400.414 67.8469C400.128 67.5598 399.739 67.398 399.333 67.3968V67.3949Z" fill="#D6D6E3"/>
<path d="M386.219 89.4673H399.335C399.819 89.4681 400.283 89.6609 400.625 90.0033C400.967 90.3458 401.16 90.81 401.161 91.2943V104.414C401.16 104.898 400.967 105.362 400.625 105.705C400.283 106.047 399.819 106.24 399.335 106.241H386.22C385.981 106.241 385.743 106.193 385.522 106.101C385.301 106.009 385.1 105.874 384.931 105.705C384.762 105.535 384.628 105.333 384.537 105.112C384.446 104.89 384.4 104.652 384.4 104.413V91.2943C384.4 91.0548 384.446 90.8174 384.538 90.5959C384.629 90.3744 384.763 90.173 384.932 90.0034C385.1 89.8337 385.301 89.699 385.522 89.607C385.743 89.515 385.98 89.4675 386.219 89.4673ZM399.335 105.651C399.663 105.651 399.977 105.52 400.209 105.288C400.441 105.056 400.571 104.741 400.572 104.413V91.2943C400.571 90.9662 400.44 90.6517 400.208 90.4198C399.977 90.1878 399.662 90.0573 399.335 90.0568H386.222C386.06 90.057 385.9 90.0891 385.75 90.1514C385.6 90.2137 385.464 90.3048 385.35 90.4197C385.236 90.5346 385.145 90.6709 385.083 90.8209C385.022 90.9709 384.99 91.1315 384.991 91.2937V104.414C384.99 104.576 385.021 104.737 385.083 104.887C385.145 105.037 385.235 105.173 385.349 105.288C385.464 105.403 385.6 105.494 385.749 105.557C385.899 105.619 386.059 105.651 386.221 105.651H399.335Z" fill="#D6D6E3"/>
<path d="M426.867 0.294769H413.754C413.349 0.296618 412.962 0.458882 412.676 0.746056C412.391 1.03323 412.231 1.42191 412.231 1.82703V14.9523C412.231 15.3567 412.391 15.7445 412.677 16.0304C412.963 16.3163 413.35 16.4769 413.754 16.4769H426.868C427.273 16.4771 427.661 16.3168 427.948 16.031C428.235 15.7453 428.397 15.3574 428.399 14.9523V1.82703C428.398 1.4209 428.236 1.03174 427.949 0.744621C427.662 0.457502 427.273 0.295775 426.867 0.294769Z" fill="#0693E3"/>
<path d="M426.867 22.6613H413.754C413.349 22.6631 412.962 22.8254 412.676 23.1126C412.391 23.3997 412.231 23.7884 412.231 24.1935V37.3188C412.231 37.7231 412.391 38.1109 412.677 38.3969C412.963 38.6828 413.35 38.8434 413.754 38.8434H426.868C427.273 38.8436 427.661 38.6833 427.948 38.3975C428.235 38.1118 428.397 37.7239 428.399 37.3188V24.1954C428.398 23.789 428.237 23.3993 427.95 23.1118C427.662 22.8243 427.273 22.6623 426.867 22.6613Z" fill="#0693E3"/>
<path d="M426.867 45.0284H413.754C413.349 45.0303 412.962 45.1925 412.676 45.4797C412.391 45.7669 412.231 46.1556 412.231 46.5607V59.6809C412.23 59.8816 412.269 60.0805 412.345 60.2662C412.422 60.4518 412.534 60.6206 412.675 60.7629C412.817 60.9052 412.985 61.0182 413.17 61.0955C413.355 61.1727 413.553 61.2127 413.754 61.2131H426.867C427.273 61.213 427.662 61.0515 427.95 60.7641C428.237 60.4768 428.398 60.0872 428.398 59.6809V46.5607C428.397 46.1546 428.235 45.7656 427.948 45.4785C427.662 45.1914 427.273 45.0296 426.867 45.0284Z" fill="#D6D6E3"/>
<path d="M413.753 67.1001H426.867C427.351 67.1025 427.813 67.2956 428.155 67.6376C428.497 67.9796 428.69 68.4428 428.693 68.9265V82.0467C428.692 82.531 428.499 82.9952 428.157 83.3377C427.815 83.6801 427.351 83.8729 426.867 83.8738H413.757C413.517 83.8736 413.28 83.8262 413.059 83.7342C412.838 83.6422 412.637 83.5075 412.468 83.3377C412.299 83.1679 412.165 82.9664 412.074 82.7448C411.983 82.5232 411.936 82.2857 411.937 82.0461V68.9272C411.938 68.4445 412.129 67.9817 412.469 67.6395C412.809 67.2973 413.271 67.1035 413.753 67.1001ZM426.867 83.2842C427.195 83.2835 427.509 83.153 427.741 82.921C427.972 82.6891 428.103 82.3747 428.104 82.0467V68.9272C428.102 68.5994 427.971 68.2856 427.739 68.0539C427.507 67.8222 427.193 67.6913 426.866 67.6897H413.757C413.43 67.6913 413.117 67.8224 412.886 68.0543C412.655 68.2861 412.525 68.5999 412.525 68.9272V82.0467C412.524 82.2089 412.556 82.3697 412.617 82.5197C412.679 82.6697 412.769 82.8061 412.884 82.9211C412.998 83.036 413.134 83.1273 413.284 83.1896C413.433 83.2519 413.594 83.284 413.756 83.2842H426.867Z" fill="#D6D6E3"/>
<path d="M426.867 89.7621H413.754C413.553 89.7625 413.355 89.8024 413.17 89.8797C412.985 89.9569 412.817 90.0699 412.675 90.2122C412.534 90.3545 412.422 90.5234 412.345 90.709C412.269 90.8947 412.23 91.0936 412.231 91.2943V104.415C412.23 104.615 412.269 104.814 412.345 105C412.422 105.185 412.534 105.354 412.675 105.497C412.817 105.639 412.985 105.752 413.17 105.829C413.355 105.906 413.553 105.946 413.754 105.947H426.867C427.273 105.947 427.662 105.785 427.95 105.498C428.237 105.21 428.398 104.821 428.398 104.415V91.2943C428.398 90.888 428.237 90.4984 427.95 90.211C427.662 89.9237 427.273 89.7622 426.867 89.7621Z" fill="#0693E3"/>
<path d="M454.401 0.294769H441.288C440.883 0.296618 440.496 0.458882 440.21 0.746056C439.925 1.03323 439.764 1.42191 439.765 1.82703V14.9523C439.765 15.3567 439.925 15.7445 440.211 16.0304C440.496 16.3163 440.884 16.4769 441.288 16.4769H454.402C454.807 16.4771 455.195 16.3168 455.482 16.031C455.769 15.7453 455.931 15.3574 455.933 14.9523V1.82703C455.931 1.4209 455.77 1.03174 455.483 0.744621C455.196 0.457502 454.807 0.295775 454.401 0.294769Z" fill="#0693E3"/>
<path d="M454.401 22.6613H441.288C440.883 22.6631 440.496 22.8254 440.21 23.1126C439.925 23.3997 439.764 23.7884 439.765 24.1935V37.3188C439.765 37.7231 439.925 38.1109 440.211 38.3969C440.496 38.6828 440.884 38.8434 441.288 38.8434H454.402C454.807 38.8436 455.195 38.6833 455.482 38.3975C455.769 38.1118 455.931 37.7239 455.933 37.3188V24.1954C455.932 23.789 455.77 23.3993 455.483 23.1118C455.196 22.8243 454.807 22.6623 454.401 22.6613Z" fill="#0693E3"/>
<path d="M454.401 45.0284H441.288C440.883 45.0303 440.496 45.1925 440.21 45.4797C439.925 45.7669 439.764 46.1556 439.765 46.5607V59.6809C439.764 59.8816 439.803 60.0805 439.879 60.2662C439.956 60.4518 440.068 60.6206 440.209 60.7629C440.351 60.9052 440.519 61.0182 440.704 61.0955C440.889 61.1727 441.087 61.2127 441.288 61.2131H454.401C454.807 61.213 455.196 61.0515 455.483 60.7641C455.771 60.4768 455.932 60.0872 455.932 59.6809V46.5607C455.931 46.1546 455.769 45.7656 455.482 45.4785C455.196 45.1914 454.807 45.0296 454.401 45.0284Z" fill="#D6D6E3"/>
<path d="M454.401 67.3949H441.288C440.883 67.3967 440.496 67.559 440.21 67.8462C439.925 68.1334 439.764 68.5221 439.765 68.9272V82.0467C439.764 82.2475 439.803 82.4463 439.879 82.632C439.956 82.8177 440.068 82.9865 440.209 83.1288C440.351 83.2711 440.519 83.3841 440.704 83.4613C440.889 83.5386 441.087 83.5786 441.288 83.579H454.401C454.807 83.5788 455.196 83.4173 455.483 83.13C455.771 82.8427 455.932 82.4531 455.932 82.0467V68.9291C455.931 68.5231 455.769 68.134 455.482 67.8469C455.196 67.5598 454.807 67.398 454.401 67.3968V67.3949Z" fill="#0693E3"/>
<path d="M454.401 89.7621H441.288C441.087 89.7625 440.889 89.8024 440.704 89.8797C440.519 89.9569 440.351 90.0699 440.209 90.2122C440.068 90.3545 439.956 90.5234 439.879 90.709C439.803 90.8947 439.764 91.0936 439.765 91.2943V104.415C439.764 104.615 439.803 104.814 439.879 105C439.956 105.185 440.068 105.354 440.209 105.497C440.351 105.639 440.519 105.752 440.704 105.829C440.889 105.906 441.087 105.946 441.288 105.947H454.401C454.807 105.947 455.196 105.785 455.483 105.498C455.771 105.21 455.932 104.821 455.932 104.415V91.2943C455.932 90.888 455.771 90.4984 455.483 90.211C455.196 89.9237 454.807 89.7622 454.401 89.7621Z" fill="#0693E3"/>
<path d="M481.935 0.294769H468.822C468.417 0.296618 468.03 0.458882 467.744 0.746056C467.459 1.03323 467.299 1.42191 467.299 1.82703V14.9523C467.299 15.3567 467.459 15.7445 467.745 16.0304C468.031 16.3163 468.418 16.4769 468.822 16.4769H481.936C482.341 16.4771 482.729 16.3168 483.016 16.031C483.303 15.7453 483.465 15.3574 483.467 14.9523V1.82703C483.466 1.4209 483.304 1.03174 483.017 0.744621C482.73 0.457502 482.341 0.295775 481.935 0.294769Z" fill="#D6D6E3"/>
<path d="M481.935 22.6613H468.822C468.417 22.6631 468.03 22.8254 467.744 23.1126C467.459 23.3997 467.299 23.7884 467.299 24.1935V37.3188C467.299 37.7231 467.459 38.1109 467.745 38.3969C468.031 38.6828 468.418 38.8434 468.822 38.8434H481.936C482.341 38.8436 482.729 38.6833 483.016 38.3975C483.303 38.1118 483.465 37.7239 483.467 37.3188V24.1954C483.466 23.789 483.304 23.3993 483.017 23.1118C482.73 22.8243 482.341 22.6623 481.935 22.6613Z" fill="#0693E3"/>
<path d="M481.935 45.0284H468.822C468.417 45.0303 468.03 45.1925 467.744 45.4797C467.459 45.7669 467.299 46.1556 467.299 46.5607V59.6809C467.298 59.8816 467.337 60.0805 467.413 60.2662C467.49 60.4518 467.602 60.6206 467.743 60.7629C467.885 60.9052 468.053 61.0182 468.238 61.0955C468.423 61.1727 468.621 61.2127 468.822 61.2131H481.935C482.341 61.213 482.73 61.0515 483.018 60.7641C483.305 60.4768 483.466 60.0872 483.466 59.6809V46.5607C483.465 46.1546 483.303 45.7656 483.016 45.4785C482.73 45.1914 482.341 45.0296 481.935 45.0284Z" fill="#0693E3"/>
<path d="M481.935 67.3949H468.822C468.417 67.3967 468.03 67.559 467.744 67.8462C467.459 68.1334 467.299 68.5221 467.299 68.9272V82.0467C467.298 82.2475 467.337 82.4463 467.413 82.632C467.49 82.8177 467.602 82.9865 467.743 83.1288C467.885 83.2711 468.053 83.3841 468.238 83.4613C468.423 83.5386 468.621 83.5786 468.822 83.579H481.935C482.341 83.5788 482.73 83.4173 483.018 83.13C483.305 82.8427 483.466 82.4531 483.466 82.0467V68.9291C483.465 68.5231 483.303 68.134 483.016 67.8469C482.73 67.5598 482.341 67.398 481.935 67.3968V67.3949Z" fill="#0693E3"/>
<path d="M481.935 89.7621H468.822C468.621 89.7626 468.423 89.8026 468.238 89.8799C468.053 89.9571 467.885 90.0701 467.743 90.2124C467.602 90.3547 467.49 90.5235 467.413 90.7091C467.337 90.8948 467.298 91.0936 467.299 91.2943V104.415C467.298 104.615 467.337 104.814 467.413 105C467.49 105.185 467.602 105.354 467.743 105.497C467.885 105.639 468.053 105.752 468.238 105.829C468.423 105.906 468.621 105.946 468.822 105.947H481.935C482.341 105.947 482.73 105.785 483.018 105.498C483.305 105.21 483.466 104.821 483.466 104.415V91.2943C483.466 90.888 483.305 90.4984 483.018 90.211C482.73 89.9237 482.341 89.7622 481.935 89.7621Z" fill="#D6D6E3"/>
<path d="M509.469 0.294769H496.356C495.951 0.296618 495.564 0.458882 495.278 0.746056C494.993 1.03323 494.832 1.42191 494.833 1.82703V14.9523C494.833 15.3567 494.993 15.7445 495.279 16.0304C495.564 16.3163 495.952 16.4769 496.356 16.4769H509.47C509.875 16.4771 510.263 16.3168 510.55 16.031C510.837 15.7453 510.999 15.3574 511.001 14.9523V1.82703C510.999 1.42101 510.838 1.03196 510.551 0.744854C510.264 0.457752 509.875 0.295943 509.47 0.294769H509.469Z" fill="#D6D6E3"/>
<path d="M509.469 22.6613H496.356C495.951 22.6631 495.564 22.8254 495.278 23.1126C494.993 23.3997 494.832 23.7884 494.833 24.1935V37.3188C494.833 37.7231 494.993 38.1109 495.279 38.3969C495.564 38.6828 495.952 38.8434 496.356 38.8434H509.47C509.875 38.8436 510.263 38.6833 510.55 38.3975C510.837 38.1118 510.999 37.7239 511.001 37.3188V24.1954C511 23.789 510.838 23.3993 510.551 23.1118C510.264 22.8243 509.875 22.6623 509.469 22.6613Z" fill="#D6D6E3"/>
<path d="M509.469 45.0284H496.356C495.951 45.0303 495.564 45.1925 495.278 45.4797C494.993 45.7669 494.832 46.1556 494.833 46.5607V59.6809C494.832 59.8816 494.871 60.0805 494.947 60.2662C495.023 60.4518 495.136 60.6206 495.277 60.7629C495.418 60.9052 495.587 61.0182 495.772 61.0955C495.957 61.1727 496.155 61.2127 496.356 61.2131H509.469C509.875 61.213 510.264 61.0515 510.551 60.7641C510.838 60.4768 511 60.0872 511 59.6809V46.5607C510.999 46.1546 510.837 45.7656 510.55 45.4785C510.263 45.1914 509.875 45.0296 509.469 45.0284Z" fill="#0693E3"/>
<path d="M509.469 67.3949H496.356C495.951 67.3969 495.564 67.5592 495.278 67.8464C494.993 68.1335 494.833 68.5221 494.833 68.9272V82.0467C494.832 82.2475 494.871 82.4463 494.947 82.632C495.023 82.8177 495.136 82.9865 495.277 83.1288C495.418 83.2711 495.587 83.3841 495.772 83.4613C495.957 83.5386 496.155 83.5786 496.356 83.579H509.469C509.875 83.5788 510.264 83.4173 510.551 83.13C510.838 82.8427 511 82.4531 511 82.0467V68.9291C510.999 68.5231 510.837 68.134 510.55 67.8469C510.263 67.5598 509.875 67.398 509.469 67.3968V67.3949Z" fill="#D6D6E3"/>
<path d="M509.469 89.7621H496.356C496.155 89.7625 495.957 89.8024 495.772 89.8797C495.587 89.9569 495.418 90.0699 495.277 90.2122C495.136 90.3545 495.023 90.5234 494.947 90.709C494.871 90.8947 494.832 91.0936 494.833 91.2943V104.415C494.832 104.615 494.871 104.814 494.947 105C495.024 105.185 495.136 105.354 495.277 105.496C495.419 105.639 495.587 105.752 495.772 105.829C495.957 105.906 496.155 105.946 496.356 105.947H509.469C509.875 105.947 510.264 105.785 510.551 105.498C510.838 105.21 511 104.821 511 104.415V91.2943C511 90.888 510.838 90.4984 510.551 90.211C510.264 89.9237 509.875 89.7622 509.469 89.7621Z" fill="#D6D6E3"/>
<mask id="mask0_59_364" style="mask-type:luminance" maskUnits="userSpaceOnUse" x="0" y="32" width="441" height="441">
<path d="M220.236 473C341.869 473 440.472 374.307 440.472 252.562C440.472 130.818 341.869 32.1242 220.236 32.1242C98.6031 32.1242 0 130.818 0 252.562C0 374.307 98.6031 473 220.236 473Z" fill="white"/>
</mask>
<g mask="url(#mask0_59_364)">
<path d="M168.192 174.424H132.649V207.458H168.192V174.424Z" fill="#ED9DA0"/>
<path d="M224.922 473.192C223.448 473.227 221.967 473.245 220.479 473.245C185.191 473.245 133.767 461.77 93.488 434.129C90.1553 431.842 93.8904 421.008 93.488 400.109L180.394 387.886L224.015 423.216L224.922 473.192Z" fill="#090814"/>
<path d="M179.492 425.636H179.127L179.439 425.594L179.492 425.636Z" fill="#2EA2CC"/>
<path d="M148.119 181.047C170.337 181.047 188.349 163.019 188.349 140.78C188.349 118.541 170.337 100.513 148.119 100.513C125.9 100.513 107.888 118.541 107.888 140.78C107.888 163.019 125.9 181.047 148.119 181.047Z" fill="#ED9DA0"/>
<path d="M183.35 111.257C183.35 111.257 193.871 91.1234 170.722 89.2932C170.722 89.2932 150.988 71.3749 130.872 86.0178C130.872 86.0178 119.901 86.0178 113.901 98.4449C113.901 98.4449 105.269 95.1694 103.375 103.936C103.375 103.936 97.0607 122.239 103.375 138.713C109.69 155.186 111.787 157.016 111.787 157.016C111.787 157.016 101.411 122.48 126.666 120.649C151.922 118.819 180.184 103.021 182.288 123.155C184.393 143.288 187.56 148.248 187.56 148.248C187.56 148.248 207.551 119.494 183.35 111.257Z" fill="#090814"/>
<path d="M252.186 240.017L252.059 240.701L250.604 248.388L240.552 301.549L239.958 304.679L238.709 311.298L237.002 320.327L233.216 340.338L232.132 346.072L231.726 348.223L231.584 348.978L230.46 354.913L230.118 356.705L227.374 377.055V397.356L225.078 425.591L225.084 425.632L90.9518 423.824C85.7703 420.465 79.9775 386.857 83.7799 355.396L83.7564 354.907L83.4327 348.218L83.3915 347.357L83.328 346.066L82.0853 320.322L82.0618 319.897L81.6848 312.094L81.3313 304.674L81.1783 301.544L79.6652 270.231L78.6408 248.966L77.7459 230.454L81.344 229.234L119.824 216.144L135.761 195.405L168.936 195.652L185.177 195.776L212.278 220.933L218.443 223.88L218.49 223.903L222.912 226.019L234.123 231.377L245.977 237.046L252.059 239.952L252.186 240.017Z" fill="#F2F2F2"/>
<path d="M140.046 365.227C137.615 366.169 135.007 366.567 132.406 366.391C129.805 366.216 127.274 365.472 124.991 364.211C122.708 362.951 120.729 361.205 119.193 359.096C117.658 356.988 116.602 354.568 116.102 352.007L53.3562 343.097L75.1685 318.401L131.409 330.648C135.763 330.091 140.171 331.153 143.795 333.632C147.42 336.11 150.01 339.834 151.075 344.097C152.14 348.359 151.605 352.865 149.572 356.76C147.54 360.654 144.15 363.667 140.046 365.227Z" fill="#ED9DA0"/>
<path d="M112.072 320.326C110.91 318.851 109.265 317.835 107.426 317.456L81.6823 312.099L79.0382 311.551C77.5017 311.23 76.0502 310.587 74.7787 309.666C73.5073 308.745 72.4445 307.565 71.6599 306.205C70.8461 304.776 70.3538 303.187 70.2173 301.549C70.0946 300.059 70.2729 298.56 70.7416 297.14L79.6627 270.235L85.451 252.778C86.1525 250.673 86.5665 248.482 86.6817 246.265C87.0037 240.132 85.1077 234.088 81.3408 229.24C78.0288 224.978 73.4352 221.896 68.2385 220.448C63.0418 219.001 57.5177 219.265 52.4822 221.201C52.335 221.254 52.182 221.313 52.0348 221.372C48.4236 222.815 45.1971 225.079 42.6105 227.985C40.0239 230.891 38.148 234.36 37.1311 238.116L30.8426 261.013L17.8703 308.213C16.5717 312.943 16.3094 317.897 17.1012 322.737C17.8931 327.577 19.7204 332.189 22.4581 336.257C25.1958 340.325 28.7793 343.753 32.9633 346.306C37.1472 348.859 41.8329 350.477 46.6996 351.049L83.7786 355.399L100.937 357.414C102.922 357.653 104.923 357.135 106.542 355.963C108.161 354.791 109.28 353.051 109.676 351.09C109.703 350.984 109.724 350.875 109.739 350.766L110.152 348.22L113.643 326.779L113.678 326.561C113.86 325.467 113.811 324.347 113.535 323.273C113.258 322.199 112.76 321.195 112.072 320.326Z" fill="#F2F2F2"/>
<path d="M180.017 365.914C182.556 366.503 185.194 366.529 187.745 365.988C190.295 365.447 192.696 364.353 194.779 362.783C196.861 361.213 198.574 359.206 199.798 356.901C201.021 354.597 201.725 352.052 201.859 349.446L262.723 331.769L237.646 310.397L183.694 330.46C179.303 330.523 175.089 332.196 171.849 335.162C168.609 338.128 166.569 342.18 166.116 346.552C165.663 350.923 166.827 355.308 169.39 358.877C171.952 362.446 175.733 364.95 180.017 365.914Z" fill="#ED9DA0"/>
<path d="M292.94 292.224L263.992 225.542C261.624 220.068 257.396 215.609 252.056 212.959C250.406 212.146 248.672 211.513 246.886 211.073C246.609 211.002 246.333 210.937 246.056 210.882C242.268 210.055 238.34 210.128 234.585 211.094C231.153 211.977 227.946 213.573 225.172 215.78C222.398 217.987 220.12 220.754 218.486 223.901C218.469 223.928 218.453 223.955 218.439 223.984C216.615 227.517 215.644 231.43 215.607 235.407C215.569 239.384 216.465 243.314 218.222 246.882L218.581 247.601L239.037 288.722C239.736 290.128 240.129 291.666 240.192 293.235C240.255 294.804 239.986 296.369 239.402 297.827C238.818 299.285 237.933 300.602 236.805 301.694C235.676 302.785 234.33 303.625 232.854 304.159L231.417 304.678L205.579 314.016C203.641 314.709 202.046 316.127 201.131 317.973C200.216 319.818 200.053 321.947 200.675 323.912L200.738 324.118L207.98 347.315C208.016 347.422 208.051 347.528 208.092 347.633C208.156 347.833 208.235 348.028 208.328 348.216C209.097 349.944 210.458 351.341 212.165 352.154C213.871 352.968 215.812 353.145 217.637 352.654L231.581 348.97L234.425 348.215L270.434 338.704C275.172 337.451 279.583 335.188 283.366 332.069C287.149 328.951 290.214 325.052 292.351 320.638C294.488 316.224 295.648 311.4 295.749 306.496C295.851 301.592 294.892 296.724 292.94 292.226V292.224Z" fill="#F2F2F2"/>
<path d="M22.0497 348.221C27.4534 358.507 29.1988 368.041 38.7946 377.053H301.1C303.664 377.057 306.122 378.079 307.935 379.894C309.747 381.709 310.767 384.17 310.769 386.736L311.15 454.237C327.522 446.708 342.855 437.095 356.767 425.635C360.63 422.459 364.372 419.145 367.996 415.692C370.369 413.441 372.685 411.135 374.944 408.773C391.882 391.113 411.431 370.619 421.302 348.221H22.0497Z" fill="#090814"/>
<path d="M374.946 408.773C372.691 411.137 370.375 413.443 367.998 415.693H311.346V408.773H374.946Z" fill="white"/>
<path d="M251.656 187.468C251.376 186.951 250.962 186.52 250.457 186.219C249.952 185.918 249.376 185.759 248.788 185.759H55.7445C54.879 185.761 54.0496 186.107 53.4381 186.72C52.8267 187.333 52.4829 188.164 52.4822 189.03V304.678H252.056V189.03C252.059 188.484 251.921 187.946 251.656 187.468Z" fill="#090814"/>
<path d="M52.3071 301.546V315.818C52.3071 317.013 52.7813 318.158 53.6254 319.003C54.4696 319.848 55.6145 320.323 56.8083 320.323H130.469V348.487H129.491C129.414 348.487 129.338 348.502 129.267 348.531C129.196 348.561 129.132 348.604 129.077 348.658C129.023 348.713 128.98 348.777 128.951 348.848C128.921 348.919 128.906 348.995 128.906 349.072V351.031C128.906 351.186 128.968 351.335 129.077 351.444C129.187 351.554 129.336 351.616 129.491 351.616H175.219C175.374 351.616 175.523 351.554 175.632 351.444C175.742 351.335 175.804 351.186 175.804 351.031V349.069C175.804 348.914 175.742 348.765 175.632 348.656C175.523 348.546 175.374 348.484 175.219 348.484H174.24V320.323H247.902C249.096 320.323 250.241 319.848 251.085 319.003C251.929 318.158 252.403 317.013 252.403 315.818V301.546H52.3071Z" fill="#090814"/>
<path d="M149.938 260.587C160.119 260.587 168.372 252.326 168.372 242.135C168.372 231.945 160.119 223.684 149.938 223.684C139.757 223.684 131.503 231.945 131.503 242.135C131.503 252.326 139.757 260.587 149.938 260.587Z" fill="#0693E3"/>
<path d="M196.906 138.58H193.965C193.965 116.302 171.937 101.703 149.714 101.691C146.481 101.682 143.256 101.996 140.086 102.628C136.518 103.342 132.814 104.196 129.175 105.31C114.826 109.712 101.518 118.223 101.518 138.58C101.514 142.533 102.017 146.471 103.013 150.297L100.163 151.039C99.107 146.971 98.5738 142.784 98.5764 138.58C98.5764 120.792 105.872 108.575 118.473 101.29C125.097 97.459 133.182 94.989 142.445 93.7871C146.299 93.2738 150.196 93.1552 154.074 93.4333C179.621 95.2724 196.906 114.887 196.906 138.58Z" fill="#0693E3"/>
<path d="M201.811 140.212L200.649 131.631C200.48 130.394 200.066 129.204 199.431 128.13C198.797 127.055 197.955 126.119 196.954 125.375C195.953 124.63 194.814 124.093 193.603 123.795C192.392 123.497 191.134 123.444 189.903 123.639L188.062 123.893C187.044 124.031 186.123 124.568 185.5 125.386C184.877 126.203 184.604 127.235 184.741 128.254L187.42 148.022C187.531 148.828 187.891 149.578 188.451 150.168C189.011 150.757 189.743 151.155 190.541 151.305C190.778 151.352 191.018 151.376 191.26 151.375C191.433 151.375 191.605 151.364 191.777 151.34L193.838 151.063C195.095 150.897 196.304 150.474 197.391 149.823C198.479 149.171 199.422 148.304 200.162 147.274C200.321 147.05 200.475 146.821 200.616 146.584C201.719 144.656 202.14 142.41 201.811 140.212Z" fill="#0693E3"/>
<path d="M201.811 140.212L200.652 131.629C200.366 129.462 199.323 127.466 197.708 125.995L200.374 145.662C200.414 145.977 200.495 146.286 200.615 146.581C201.718 144.653 202.14 142.408 201.81 140.21L201.811 140.212Z" fill="#090814"/>
<path d="M112.12 159.032L107.586 140.164C107.424 139.484 107.065 138.866 106.554 138.389C106.043 137.912 105.402 137.597 104.712 137.483C104.518 137.452 104.321 137.437 104.123 137.436C103.845 137.437 103.569 137.47 103.298 137.536L101.543 137.96C99.2837 138.507 97.3328 139.928 96.119 141.913C94.9053 143.897 94.5279 146.283 95.0697 148.546L97.1007 157.01C97.5641 159.003 98.6688 160.788 100.245 162.092C100.5 162.298 100.768 162.489 101.046 162.663C102.033 163.283 103.134 163.698 104.284 163.884C105.434 164.07 106.609 164.024 107.741 163.748L109.49 163.324C109.952 163.216 110.387 163.013 110.767 162.728C111.334 162.316 111.765 161.744 112.006 161.086C112.247 160.428 112.286 159.713 112.12 159.032Z" fill="#0693E3"/>
<path d="M96.0972 144.81C95.9722 144.285 95.7375 143.793 95.4086 143.366C94.7712 145.018 94.6541 146.826 95.0729 148.547L97.1039 157.01C97.5673 159.003 98.672 160.789 100.248 162.092L96.0972 144.81Z" fill="#090814"/>
</g>
</g>
<defs>
<clipPath id="clip0_59_364">
<rect width="511" height="473" fill="white"/>
</clipPath>
</defs>
</svg>
