<svg width="160" height="75" viewBox="0 0 160 75" fill="none" xmlns="http://www.w3.org/2000/svg">
<g clip-path="url(#clip0_56_85)">
<path d="M66.0247 31.3052C63.3864 31.173 61.0864 32.6754 60.0524 34.8846C59.7769 35.4735 59.1802 35.8485 58.5279 35.8485H58.5158C57.8683 35.8485 57.2691 35.4831 56.9961 34.899C56.3752 33.5625 55.288 32.4831 53.9447 31.8653C53.3576 31.5961 52.9904 30.9975 52.9904 30.3533V30.3461C52.9904 29.6947 53.3673 29.1009 53.9616 28.8269C56.1843 27.8004 57.6943 25.5096 57.5639 22.8846C57.4044 19.7187 54.8193 17.1538 51.635 17.0072C48.0569 16.8413 45.1045 19.6778 45.1045 23.2019C45.1045 25.7019 46.5904 27.8533 48.731 28.8341C49.3205 29.1033 49.6853 29.7019 49.6853 30.3461V30.3533C49.6853 31.0048 49.3084 31.5985 48.7141 31.8725C46.4913 32.899 44.9789 35.1899 45.1118 37.8173C45.2712 40.9759 47.8443 43.536 51.0189 43.6923C53.6596 43.8221 55.9621 42.3149 56.9937 40.1033C57.2691 39.512 57.8659 39.1346 58.5206 39.1346C59.1681 39.1346 59.7697 39.5 60.0403 40.0865C61.026 42.2187 63.1908 43.6995 65.7058 43.6995C69.2477 43.6995 72.0986 40.762 71.9319 37.2019C71.7845 34.036 69.209 31.4615 66.0272 31.3028L66.0247 31.3052Z" fill="#036EF2"/>
<path d="M28.8375 37.1828C28.678 34.0266 26.1074 31.4665 22.9352 31.3078C20.2776 31.1756 17.963 32.6996 16.9386 34.9328C16.6801 35.4953 16.11 35.8511 15.4866 35.8511H15.3682C14.7473 35.8511 14.1747 35.4953 13.9162 34.9328C12.8942 32.6996 10.5797 31.1732 7.91969 31.3078C4.74748 31.4665 2.17443 34.0266 2.01739 37.1828C1.88451 39.8078 3.39693 42.0987 5.61724 43.1251C6.21158 43.3991 6.59089 43.9953 6.59089 44.6467C6.59089 45.3006 6.21158 45.8943 5.61724 46.1708C3.39693 47.1972 1.88692 49.4857 2.01739 52.1131C2.17685 55.279 4.76197 57.8439 7.94627 57.9905C11.5244 58.1564 14.4767 55.3198 14.4767 51.7958C14.4767 49.2982 12.9909 47.1467 10.8527 46.1636C10.2632 45.8919 9.89599 45.2934 9.89599 44.6467C9.89599 44.0001 10.2632 43.4016 10.8527 43.1323C12.2009 42.5145 13.2881 41.4304 13.909 40.0891C14.1747 39.5145 14.7401 39.1371 15.3755 39.1371H15.4794C16.1148 39.1371 16.6801 39.5145 16.9459 40.0891C17.5668 41.4304 18.654 42.5145 20.0021 43.1323C20.5916 43.404 20.9589 44.0025 20.9589 44.6467C20.9589 45.3006 20.5796 45.8943 19.9852 46.1708C17.7649 47.1972 16.2549 49.4857 16.3854 52.1131C16.5448 55.279 19.13 57.8439 22.3143 57.9905C25.8924 58.1564 28.8447 55.3198 28.8447 51.7958C28.8447 49.2982 27.3589 47.1467 25.2207 46.1636C24.6312 45.8919 24.264 45.2934 24.264 44.6467C24.264 43.9929 24.6433 43.3992 25.2376 43.1227C27.4579 42.0963 28.9679 39.8054 28.8375 37.1804V37.1828Z" fill="#036EF2"/>
<path d="M43.2006 8.90867C43.2006 5.38463 40.2483 2.54809 36.6701 2.71395C33.4858 2.86059 30.9007 5.42549 30.7413 8.59136C30.6108 11.2188 32.1232 13.5072 34.3435 14.5337C34.9379 14.8077 35.3148 15.4015 35.3148 16.0529V16.0601C35.3148 16.7043 34.9475 17.3005 34.3604 17.5721C32.2199 18.5529 30.734 20.7067 30.734 23.2043C30.734 25.7019 32.2199 27.8558 34.3604 28.8366C34.9499 29.1058 35.3148 29.7043 35.3148 30.3486V30.3558C35.3148 31 34.9475 31.5962 34.3604 31.8678C32.2199 32.8486 30.734 35.0024 30.734 37.5C30.734 39.9976 32.2199 42.1515 34.3604 43.1322C34.9499 43.4015 35.3148 44 35.3148 44.6442V44.6515C35.3148 45.2957 34.9475 45.8918 34.3604 46.1635C32.2199 47.1442 30.734 49.2981 30.734 51.7957C30.734 54.2933 32.2199 56.4471 34.3604 57.4279C34.9499 57.6971 35.3148 58.2957 35.3148 58.9399V58.9471C35.3148 59.5986 34.9379 60.1923 34.3435 60.4664C32.1208 61.4928 30.6084 63.7837 30.7413 66.4087C30.9007 69.5745 33.4858 72.1394 36.6701 72.2861C40.2483 72.4519 43.2006 69.6154 43.2006 66.0914C43.2006 63.5914 41.7148 61.4399 39.5742 60.4592C38.9847 60.1899 38.6199 59.5914 38.6199 58.9471V58.9399C38.6199 58.2957 38.9871 57.6995 39.5742 57.4279C41.7148 56.4471 43.2006 54.2933 43.2006 51.7957C43.2006 49.2981 41.7148 47.1442 39.5742 46.1635C38.9847 45.8942 38.6199 45.2957 38.6199 44.6515V44.6442C38.6199 44 38.9871 43.4039 39.5742 43.1322C41.7148 42.1515 43.2006 39.9976 43.2006 37.5C43.2006 35.0024 41.7148 32.8486 39.5742 31.8678C38.9847 31.5986 38.6199 31 38.6199 30.3558V30.3486C38.6199 29.7043 38.9871 29.1082 39.5742 28.8366C41.7148 27.8558 43.2006 25.7019 43.2006 23.2043C43.2006 20.7067 41.7148 18.5529 39.5742 17.5721C38.9847 17.3029 38.6199 16.7043 38.6199 16.0601V16.0529C38.6199 15.4087 38.9871 14.8125 39.5742 14.5409C41.7148 13.5601 43.2006 11.4063 43.2006 8.90867Z" fill="#036EF2"/>
<path d="M80.0035 20.2525C79.9745 20.0554 80.1292 19.8823 80.3273 19.8823H110.773C110.955 19.8823 111.102 20.0289 111.102 20.2092V26.4328C111.102 26.6131 110.955 26.7597 110.773 26.7597H100.226C100.044 26.7597 99.8969 26.9063 99.8969 27.0866V56.7501C99.8969 56.9304 99.7496 57.077 99.5684 57.077H92.0063C91.8251 57.077 91.6777 56.9304 91.6777 56.7501V27.0866C91.6777 26.9063 91.5303 26.7597 91.3491 26.7597H81.8131C81.6126 26.7597 81.458 26.5866 81.4894 26.3895L80.0011 20.2525H80.0035Z" fill="#04165D"/>
<path d="M116.425 19.8823H124.163C124.296 19.8823 124.402 19.9905 124.402 20.1203V56.8318C124.402 56.964 124.293 57.0698 124.163 57.0698H116.425C116.292 57.0698 116.185 56.9616 116.185 56.8318V20.1203C116.185 19.9881 116.294 19.8823 116.425 19.8823Z" fill="#04165D"/>
<path d="M136.688 44.7307C136.823 44.7307 136.929 44.8437 136.932 44.9783C137.06 49.7428 140.877 51.6081 145.199 51.6081C148.079 51.6081 152.476 50.774 152.476 46.9711C152.476 42.9591 146.876 42.2836 141.377 40.8245C135.827 39.3654 130.227 37.2307 130.227 30.25C130.227 22.6466 137.451 19 144.206 19C151.923 19 159.026 22.3149 159.176 30.7115C159.178 30.8557 159.057 30.9807 158.912 30.9807H151.449C151.319 30.9807 151.215 30.875 151.203 30.7452C150.845 26.4591 147.695 25.3533 143.839 25.3533C141.222 25.3533 138.186 26.4471 138.186 29.5721C138.186 32.4375 139.966 32.8005 149.335 35.1971C152.058 35.875 160.435 37.5937 160.435 46.0312C160.435 52.8557 155.042 57.9591 144.888 57.9591C136.695 57.9591 129.017 53.9759 128.971 44.9928C128.971 44.8509 129.089 44.7283 129.232 44.7283H136.688V44.7307Z" fill="#04165D"/>
</g>
<defs>
<clipPath id="clip0_56_85">
<rect width="160" height="75" fill="white"/>
</clipPath>
</defs>
</svg>
